<?xml version="1.0" encoding="UTF-8"?>
<svg version="1.1" xmlns="http://www.w3.org/2000/svg" width="100" height="100">
<path d="M0 0 C33 0 66 0 100 0 C100 33 100 66 100 100 C67 100 34 100 0 100 C0 67 0 34 0 0 Z " fill="#D3D3D3" transform="translate(0,0)"/>
<path d="M0 0 C0.495 1.485 0.495 1.485 1 3 C1.66 3 2.32 3 3 3 C3.495 3.99 3.495 3.99 4 5 C4.33 4.67 4.66 4.34 5 4 C9.96723601 4.04030212 14.34412542 4.34412542 18 8 C18.99 7.01 19.98 6.02 21 5 C25.95541352 6.37650375 27.39547338 8.68625279 30 13 C30.90861112 14.25586767 31.82535747 15.50588828 32.75 16.75 C35 20 35 20 35 22 C34.34 22.33 33.68 22.66 33 23 C34.32 23 35.64 23 37 23 C37.99 25.64 38.98 28.28 40 31 C40.33 31 40.66 31 41 31 C41.10871272 35.45722156 40.74499056 39.60455568 40 44 C39.85111328 45.03640625 39.85111328 45.03640625 39.69921875 46.09375 C38.08743395 55.3411618 32.48328026 64.57874455 25.14453125 70.49609375 C18.42100224 75.21113686 12.19084768 77.60366866 4 78 C4.33 76.35 4.66 74.7 5 73 C4.34 73 3.68 73 3 73 C3 72.34 3 71.68 3 71 C3.99 71 4.98 71 6 71 C5.67 70.01 5.34 69.02 5 68 C5.94875 68.28875 6.8975 68.5775 7.875 68.875 C12.68943471 69.58098635 15.87076498 67.24619326 19.7734375 64.6640625 C26.07201528 59.95670437 29.54941888 52.35174336 32 45 C32.31661477 39.58961227 32.11873451 34.31398894 31 29 C29.68 28.67 28.36 28.34 27 28 C27 27.01 27 26.02 27 25 C26.01 24.67 25.02 24.34 24 24 C24.27714844 24.50789063 24.55429688 25.01578125 24.83984375 25.5390625 C27.0334683 29.7077298 28.52413155 33.24131553 29 38 C25.7 38 22.4 38 19 38 C19.66 37.34 20.32 36.68 21 36 C21 35.01 21 34.02 21 33 C19.35 32.34 17.7 31.68 16 31 C16.33 29.35 16.66 27.7 17 26 C16.05125 25.175 15.1025 24.35 14.125 23.5 C13.59132812 23.0359375 13.05765625 22.571875 12.5078125 22.09375 C11.04063579 20.80427542 11.04063579 20.80427542 9 21 C9.99 21.99 10.98 22.98 12 24 C11.35933594 23.97679688 10.71867187 23.95359375 10.05859375 23.9296875 C4.62652822 23.81635081 0.20126245 24.23157077 -5 26 C-5.763125 26.0825 -6.52625 26.165 -7.3125 26.25 C-9.34704073 26.91927915 -9.34704073 26.91927915 -10.125 29.8125 C-10.41375 30.864375 -10.7025 31.91625 -11 33 C-11.63815344 34.34721283 -12.29325371 35.68747118 -13 37 C-13.495 36.855625 -13.99 36.71125 -14.5 36.5625 C-17.97752922 35.78005593 -21.45955123 35.41305236 -25 35 C-25.495 33.515 -25.495 33.515 -26 32 C-26.33 32.99 -26.66 33.98 -27 35 C-29.64 35 -32.28 35 -35 35 C-34.1697481 25.24454017 -29.57743201 16.23380776 -23 9 C-20.484375 7.78515625 -20.484375 7.78515625 -18 7 C-16.3603125 6.443125 -16.3603125 6.443125 -14.6875 5.875 C-13.800625 5.58625 -12.91375 5.2975 -12 5 C-11.34 5.66 -10.68 6.32 -10 7 C-9.67 6.34 -9.34 5.68 -9 5 C-9.66 4.67 -10.32 4.34 -11 4 C-11 3.34 -11 2.68 -11 2 C-8.70370006 0.85185003 -6.92301914 0.69230191 -4.375 0.4375 C-3.14910156 0.31181641 -3.14910156 0.31181641 -1.8984375 0.18359375 C-0.95871094 0.09271484 -0.95871094 0.09271484 0 0 Z " fill="#EAEBEB" transform="translate(48,12)"/>
<path d="M0 0 C4.37859255 0.50522222 6.81651224 3.17827222 10 6 C9.67 7.32 9.34 8.64 9 10 C11.475 11.485 11.475 11.485 14 13 C13.67 14.32 13.34 15.64 13 17 C15.64 17.33 18.28 17.66 21 18 C20.6390625 17.09636719 20.278125 16.19273438 19.90625 15.26171875 C19.21015625 13.49248047 19.21015625 13.49248047 18.5 11.6875 C18.0359375 10.51574219 17.571875 9.34398437 17.09375 8.13671875 C16 5 16 5 16 2 C16.99 2.66 17.98 3.32 19 4 C19.99 4.495 19.99 4.495 21 5 C21 6.33333333 21 7.66666667 21 9 C21.66 9 22.32 9 23 9 C25.97871951 16.07445884 26.02081334 22.95925554 23.375 30.125 C19.4105335 38.93799521 14.30696117 44.12658278 6 49 C4.68 48.34 3.36 47.68 2 47 C2.515625 46.62875 3.03125 46.2575 3.5625 45.875 C4.7690625 44.946875 4.7690625 44.946875 6 44 C6.57878906 43.56300781 7.15757813 43.12601563 7.75390625 42.67578125 C11.87643484 39.39669275 13.55154583 37.19029413 15 32 C15.99 31.67 16.98 31.34 18 31 C19.22520264 27.99152582 19.22520264 27.99152582 20 25 C18.02 24.67 16.04 24.34 14 24 C13.95875 24.66 13.9175 25.32 13.875 26 C12.25760284 31.5453617 8.51263572 35.52425784 4.4375 39.5 C-0.98117623 41.86451327 -6.18953656 41.85427227 -12 41 C-15.02066816 39.69899687 -17.49328057 38.12048774 -20 36 C-19.67 35.01 -19.34 34.02 -19 33 C-19.495 32.505 -19.495 32.505 -20 32 C-20.33 31.01 -20.66 30.02 -21 29 C-21.99 29 -22.98 29 -24 29 C-23.67 26.69 -23.34 24.38 -23 22 C-23.99 22 -24.98 22 -26 22 C-26 20.68 -26 19.36 -26 18 C-27.98 18 -29.96 18 -32 18 C-31.89300781 18.61488281 -31.78601562 19.22976562 -31.67578125 19.86328125 C-31.55589844 20.67152344 -31.43601562 21.47976562 -31.3125 22.3125 C-31.12107422 23.51326172 -31.12107422 23.51326172 -30.92578125 24.73828125 C-31 27 -31 27 -32.48046875 28.79296875 C-32.98191406 29.19128906 -33.48335937 29.58960937 -34 30 C-35.13764351 25.73383684 -36 22.43513689 -36 18 C-38.31 18 -40.62 18 -43 18 C-42.17429432 28.2960443 -39.29130397 35.23420571 -34 44 C-33.67 44.66 -33.34 45.32 -33 46 C-38.84801639 43.57490465 -41.55926842 38.23495122 -44.05078125 32.640625 C-47.11800366 23.74422635 -47.2902263 13.84248317 -44 5 C-43.01 5.33 -42.02 5.66 -41 6 C-41.66 8.97 -42.32 11.94 -43 15 C-40.36 15 -37.72 15 -35 15 C-34.67 13.68 -34.34 12.36 -34 11 C-33.67 12.32 -33.34 13.64 -33 15 C-29.37 15 -25.74 15 -22 15 C-21.67 15.66 -21.34 16.32 -21 17 C-20.896875 16.46375 -20.79375 15.9275 -20.6875 15.375 C-19.50773887 11.29946156 -18.27327412 7.95325335 -14.80859375 5.359375 C-11.51024353 3.76295514 -8.96108347 3.49971352 -5.3125 3.3125 C-4.17425781 3.24675781 -3.03601562 3.18101563 -1.86328125 3.11328125 C-0.24301536 3.04917796 1.37846653 3 3 3 C2.01 2.01 1.02 1.02 0 0 Z " fill="#D0D0D0" transform="translate(56,32)"/>
<path d="M0 0 C2.31 0 4.62 0 7 0 C7.99 3.63 8.98 7.26 10 11 C10 10.01 10 9.02 10 8 C10.28627045 5.32643843 10.65031551 2.66634425 11 0 C12.98 0 14.96 0 17 0 C17 1.32 17 2.64 17 4 C17.99 4 18.98 4 20 4 C20 6.31 20 8.62 20 11 C20.99 10.67 21.98 10.34 23 10 C23 10.99 23 11.98 23 13 C24.32 13.66 25.64 14.32 27 15 C26.01 15.33 25.02 15.66 24 16 C24.72659474 19.12846753 24.72659474 19.12846753 27.25 20.6875 C33.43397022 22.85188958 40.2516583 23.5268804 46.4453125 21.00390625 C51.98366957 17.28710008 54.51614239 12.04246131 57 6 C58.98 6 60.96 6 63 6 C63.495 6.99 63.495 6.99 64 8 C63.34 8 62.68 8 62 8 C61.896875 8.78375 61.79375 9.5675 61.6875 10.375 C61 13 61 13 58 15 C57.7525 15.9075 57.505 16.815 57.25 17.75 C55.1734121 23.14912853 50.6985772 25.8676152 46 29 C46.495 29.99 46.495 29.99 47 31 C44.36 30.34 41.72 29.68 39 29 C38.67 29.66 38.34 30.32 38 31 C38 30.01 38 29.02 38 28 C37.34 28 36.68 28 36 28 C36 28.99 36 29.98 36 31 C29.84765625 30.4140625 29.84765625 30.4140625 28 30 C27.67 29.34 27.34 28.68 27 28 C26.01 28 25.02 28 24 28 C21.3125 25.6875 21.3125 25.6875 19 23 C19 22.01 19 21.02 19 20 C18.01 20 17.02 20 16 20 C14.61328125 18.46875 14.61328125 18.46875 13.3125 16.5 C12.87550781 15.8503125 12.43851563 15.200625 11.98828125 14.53125 C11.66214844 14.0259375 11.33601563 13.520625 11 13 C11.98775611 16.77143244 13.06491226 19.23443279 15.75 22 C16.4925 22.99 17.235 23.98 18 25 C17.3125 28.375 17.3125 28.375 16 31 C10.3528657 29.67126252 7.95923781 25.63397129 5 21 C1.82053472 15.42587416 -0.15796843 10.74185303 -0.0625 4.25 C-0.05347656 3.45078125 -0.04445313 2.6515625 -0.03515625 1.828125 C-0.02355469 1.22484375 -0.01195312 0.6215625 0 0 Z " fill="#E9EAEA" transform="translate(13,50)"/>
<path d="M0 0 C2.48660455 0.3878678 3.72345219 0.70962479 5.484375 2.55859375 C5.90203125 3.17863281 6.3196875 3.79867188 6.75 4.4375 C7.17796875 5.05496094 7.6059375 5.67242188 8.046875 6.30859375 C9 8 9 8 9 10 C8.01 10.495 8.01 10.495 7 11 C8.32 11 9.64 11 11 11 C11.99 13.64 12.98 16.28 14 19 C14.33 19 14.66 19 15 19 C15.10871272 23.45722156 14.74499056 27.60455568 14 32 C13.85111328 33.03640625 13.85111328 33.03640625 13.69921875 34.09375 C12.08743395 43.3411618 6.48328026 52.57874455 -0.85546875 58.49609375 C-7.57899776 63.21113686 -13.80915232 65.60366866 -22 66 C-21.67 64.35 -21.34 62.7 -21 61 C-21.66 61 -22.32 61 -23 61 C-23 60.34 -23 59.68 -23 59 C-22.01 59 -21.02 59 -20 59 C-20.495 57.515 -20.495 57.515 -21 56 C-19.576875 56.433125 -19.576875 56.433125 -18.125 56.875 C-13.31056529 57.58098635 -10.12923502 55.24619326 -6.2265625 52.6640625 C0.07201528 47.95670437 3.54941888 40.35174336 6 33 C6.31661477 27.58961227 6.11873451 22.31398894 5 17 C3.68 16.67 2.36 16.34 1 16 C1.21527344 15.42765625 1.43054688 14.8553125 1.65234375 14.265625 C2.11419214 11.25582649 1.25521444 10.22714309 -0.4375 7.75 C-0.91058594 7.04359375 -1.38367188 6.3371875 -1.87109375 5.609375 C-2.24363281 5.07828125 -2.61617187 4.5471875 -3 4 C-2.01 2.68 -1.02 1.36 0 0 Z " fill="#F3F4F5" transform="translate(74,24)"/>
<path d="M0 0 C4.37176738 0.5044347 7.03565315 2.89777655 10 6 C9.8125 9.1875 9.8125 9.1875 9 12 C9.495 12.99 9.495 12.99 10 14 C10.13357453 17.67329964 10.1671568 20.49852959 9 24 C8.34 24 7.68 24 7 24 C6.97421875 23.34773438 6.9484375 22.69546875 6.921875 22.0234375 C6.5396903 16.13431877 5.8397944 12.53793884 2 8 C-1.9350421 6.03247895 -6.7105522 6.53577405 -11 7 C-14.00197464 8.80118478 -15.45166366 9.90332732 -17 13 C-18.02168633 20.36631647 -18.02168633 20.36631647 -15.578125 27.08984375 C-12.54611727 29.73961119 -9.96344823 31.20204914 -6 32 C-6 32.99 -6 33.98 -6 35 C-4.68 35.33 -3.36 35.66 -2 36 C-10.57142857 36.28571429 -10.57142857 36.28571429 -14 34 C-14 34.99 -14 35.98 -14 37 C-13.01 37.495 -13.01 37.495 -12 38 C-12 38.66 -12 39.32 -12 40 C-17.75 38.25 -17.75 38.25 -20 36 C-19.67 35.01 -19.34 34.02 -19 33 C-19.495 32.505 -19.495 32.505 -20 32 C-20.33 31.01 -20.66 30.02 -21 29 C-21.99 29 -22.98 29 -24 29 C-23.67 26.69 -23.34 24.38 -23 22 C-23.99 22 -24.98 22 -26 22 C-26 20.68 -26 19.36 -26 18 C-27.98 18 -29.96 18 -32 18 C-31.89300781 18.61488281 -31.78601562 19.22976562 -31.67578125 19.86328125 C-31.55589844 20.67152344 -31.43601562 21.47976562 -31.3125 22.3125 C-31.12107422 23.51326172 -31.12107422 23.51326172 -30.92578125 24.73828125 C-31 27 -31 27 -32.48046875 28.79296875 C-32.98191406 29.19128906 -33.48335937 29.58960937 -34 30 C-35.13764351 25.73383684 -36 22.43513689 -36 18 C-38.31 18 -40.62 18 -43 18 C-42.17429432 28.2960443 -39.29130397 35.23420571 -34 44 C-33.67 44.66 -33.34 45.32 -33 46 C-38.84801639 43.57490465 -41.55926842 38.23495122 -44.05078125 32.640625 C-47.11800366 23.74422635 -47.2902263 13.84248317 -44 5 C-43.01 5.33 -42.02 5.66 -41 6 C-41.66 8.97 -42.32 11.94 -43 15 C-40.36 15 -37.72 15 -35 15 C-34.67 13.68 -34.34 12.36 -34 11 C-33.67 12.32 -33.34 13.64 -33 15 C-29.37 15 -25.74 15 -22 15 C-21.67 15.66 -21.34 16.32 -21 17 C-20.896875 16.46375 -20.79375 15.9275 -20.6875 15.375 C-19.50773887 11.29946156 -18.27327412 7.95325335 -14.80859375 5.359375 C-11.51024353 3.76295514 -8.96108347 3.49971352 -5.3125 3.3125 C-4.17425781 3.24675781 -3.03601562 3.18101563 -1.86328125 3.11328125 C-0.24301536 3.04917796 1.37846653 3 3 3 C2.01 2.01 1.02 1.02 0 0 Z " fill="#B4B4B4" transform="translate(56,32)"/>
<path d="M0 0 C6.4118727 -0.35621515 12.04495899 0.46939778 18 3 C18.495 3.99 18.495 3.99 19 5 C13.06 3.515 13.06 3.515 7 2 C7 3.98 7 5.96 7 8 C9.64 8.33 12.28 8.66 15 9 C14.67 9.66 14.34 10.32 14 11 C14.99 11.99 15.98 12.98 17 14 C16.35933594 13.97679687 15.71867187 13.95359375 15.05859375 13.9296875 C9.62652822 13.81635081 5.20126245 14.23157077 0 16 C-0.763125 16.0825 -1.52625 16.165 -2.3125 16.25 C-4.34704073 16.91927915 -4.34704073 16.91927915 -5.125 19.8125 C-5.41375 20.864375 -5.7025 21.91625 -6 23 C-6.63815344 24.34721283 -7.29325371 25.68747118 -8 27 C-8.495 26.855625 -8.99 26.71125 -9.5 26.5625 C-12.97752922 25.78005593 -16.45955123 25.41305236 -20 25 C-21.35384615 18.6 -21.35384615 18.6 -19.5625 15.5625 C-19.046875 15.046875 -18.53125 14.53125 -18 14 C-17.67 14.66 -17.34 15.32 -17 16 C-16.5875 15.46890625 -16.175 14.9378125 -15.75 14.390625 C-11.32372469 8.97634181 -6.96593707 4.50932688 0.28515625 3.765625 C2.19165807 3.75217525 4.09829585 3.86416399 6 4 C6 3.34 6 2.68 6 2 C3.03 1.505 3.03 1.505 0 1 C0 0.67 0 0.34 0 0 Z " fill="#D5D5D5" transform="translate(43,22)"/>
<path d="M0 0 C3.125 1.6875 3.125 1.6875 5 4 C5.8125 6.75 5.8125 6.75 6 9 C4.68 9.33 3.36 9.66 2 10 C1.731875 9.38125 1.46375 8.7625 1.1875 8.125 C0.04443152 5.7004767 0.04443152 5.7004767 -3 4 C-3.33 4.66 -3.66 5.32 -4 6 C-4.804375 6.28875 -5.60875 6.5775 -6.4375 6.875 C-9.13605515 7.77050152 -9.13605515 7.77050152 -10.3125 10.125 C-10.539375 10.74375 -10.76625 11.3625 -11 12 C-11.99 12 -12.98 12 -14 12 C-14 12.33 -14 12.66 -14 13 C-13.34 13 -12.68 13 -12 13 C-10.25 14.5625 -10.25 14.5625 -9 17 C-9.8125 20.75 -9.8125 20.75 -11 24 C-13.89721704 22.70124753 -16.04177613 21.52478864 -18 19 C-18.84755071 13.63981441 -18.93487606 8.61185527 -16.1875 3.875 C-10.92260132 -0.6377703 -6.73339699 -0.79737596 0 0 Z " fill="#D9D9D9" transform="translate(56,38)"/>
<path d="M0 0 C6.29785459 0.94592282 10.96066973 2.02158136 16 6 C15.67 6.99 15.34 7.98 15 9 C16.32 8.67 17.64 8.34 19 8 C23.440745 13.90702873 25.83791965 18.67889378 27 26 C23.7 26 20.4 26 17 26 C17.66 25.34 18.32 24.68 19 24 C19 23.01 19 22.02 19 21 C17.35 20.34 15.7 19.68 14 19 C14.33 17.35 14.66 15.7 15 14 C10.24891983 9.27861408 6.61925944 7.16127359 0 6 C0 4.02 0 2.04 0 0 Z " fill="#EBEBEB" transform="translate(50,24)"/>
<path d="M0 0 C7.23250994 3.16521223 11.66021896 10.18940514 14.9296875 17.12890625 C16.957374 22.56813828 18.21655694 28.25208613 19 34 C18.67 34.33 18.34 34.66 18 35 C17.75158662 36.62216927 17.5268247 38.24797594 17.3125 39.875 C15.55615694 49.81900115 10.56116142 57.44550209 3 64 C2.34 63.34 1.68 62.68 1 62 C1.53109375 61.45472656 2.0621875 60.90945312 2.609375 60.34765625 C9.87335455 52.59322553 13.27807126 46.25140743 13.82421875 35.578125 C14 33 14 33 14.57421875 30.2890625 C15.11224662 27.39654571 14.35491577 26.55928534 13 24 C12.61250787 21.67504723 12.27017161 19.34148732 12 17 C9.69 17.33 7.38 17.66 5 18 C5.66 17.34 6.32 16.68 7 16 C7.99 16 8.98 16 10 16 C9.61328125 15.41992188 9.2265625 14.83984375 8.828125 14.2421875 C7.75200313 12.6280047 6.67650842 11.01340365 5.6015625 9.3984375 C4.64294322 7.96284667 3.68064952 6.52968384 2.7109375 5.1015625 C0 1.10341727 0 1.10341727 0 0 Z " fill="#C1C1C1" transform="translate(73,18)"/>
<path d="M0 0 C6.4118727 -0.35621515 12.04495899 0.46939778 18 3 C18.495 3.99 18.495 3.99 19 5 C13.06 3.515 13.06 3.515 7 2 C7 3.98 7 5.96 7 8 C9.64 8.33 12.28 8.66 15 9 C14.67 9.66 14.34 10.32 14 11 C14.99 11.99 15.98 12.98 17 14 C16.35933594 13.97679687 15.71867187 13.95359375 15.05859375 13.9296875 C9.57202885 13.81521372 5.1834913 14.20164587 0 16 C-0.99 16.33 -1.98 16.66 -3 17 C-3.33 16.34 -3.66 15.68 -4 15 C-4.99 14.67 -5.98 14.34 -7 14 C-5.59138651 12.98868775 -4.17274547 11.99133233 -2.75 11 C-1.56664062 10.1646875 -1.56664062 10.1646875 -0.359375 9.3125 C2 8 2 8 6 8 C6 7.01 6 6.02 6 5 C-0.49523014 6.51732835 -5.28001865 8.47558948 -10.40625 12.79296875 C-12 14 -12 14 -14 14 C-12.49567855 9.48703566 -8.95407822 7.28648871 -5 5 C-1.33149352 3.83681502 2.16645656 3.91084783 6 4 C6 3.34 6 2.68 6 2 C3.03 1.505 3.03 1.505 0 1 C0 0.67 0 0.34 0 0 Z " fill="#CACBCA" transform="translate(43,22)"/>
<path d="M0 0 C4.37176738 0.5044347 7.03565315 2.89777655 10 6 C9.8125 9.1875 9.8125 9.1875 9 12 C9.33 12.66 9.66 13.32 10 14 C10.13357453 17.67329964 10.1671568 20.49852959 9 24 C8.34 24 7.68 24 7 24 C6.97421875 23.34773438 6.9484375 22.69546875 6.921875 22.0234375 C6.5396903 16.13431877 5.8397944 12.53793884 2 8 C-1.94482335 6.02758833 -6.69961189 6.55813668 -11 7 C-15.42312593 9.39585988 -17.03390633 12.44694097 -19 17 C-20.23896243 14.07154334 -19.99614276 12.98949975 -18.875 9.9375 C-16.77645326 6.64977677 -15.47232329 5.68531172 -12 4 C-8.73828125 3.48828125 -8.73828125 3.48828125 -5.3125 3.3125 C-4.17425781 3.24675781 -3.03601563 3.18101563 -1.86328125 3.11328125 C-0.24301536 3.04917796 1.37846653 3 3 3 C2.01 2.01 1.02 1.02 0 0 Z " fill="#CBCBCA" transform="translate(56,32)"/>
<path d="M0 0 C2.35309329 1.29825836 3.94593818 3.08319946 5.8125 5 C-8.59980068 12.85193622 -8.59980068 12.85193622 -17.1875 13 C-16.8575 11.35 -16.5275 9.7 -16.1875 8 C-16.8475 8 -17.5075 8 -18.1875 8 C-18.1875 7.34 -18.1875 6.68 -18.1875 6 C-17.1975 6 -16.2075 6 -15.1875 6 C-15.5175 5.01 -15.8475 4.02 -16.1875 3 C-14.6715625 3.37125 -14.6715625 3.37125 -13.125 3.75 C-9.16800045 4.00123807 -8.59314005 3.95497163 -5.5 2 C-2.1875 0 -2.1875 0 0 0 Z " fill="#EBEDED" transform="translate(69.1875,77)"/>
<path d="M0 0 C0.33 0.66 0.66 1.32 1 2 C1.99 2.33 2.98 2.66 4 3 C6.08845462 6.07044321 6.22107559 8.59912751 6.125 12.25 C6.10695313 13.14203125 6.08890625 14.0340625 6.0703125 14.953125 C6.04710938 15.62859375 6.02390625 16.3040625 6 17 C5.34 17.33 4.68 17.66 4 18 C2 16 2 16 0 13 C-1.97747122 12.63702064 -1.97747122 12.63702064 -4.125 12.8125 C-5.40375 12.874375 -6.6825 12.93625 -8 13 C-8.33 12.01 -8.66 11.02 -9 10 C-9.66 10 -10.32 10 -11 10 C-10.67 11.32 -10.34 12.64 -10 14 C-10.66 13.67 -11.32 13.34 -12 13 C-12 11.02 -12 9.04 -12 7 C-11.67 7.66 -11.34 8.32 -11 9 C-10.01 8.67 -9.02 8.34 -8 8 C-7.731875 7.401875 -7.46375 6.80375 -7.1875 6.1875 C-5.49201575 3.06423954 -2.98560787 1.81732653 0 0 Z " fill="#C7C7C7" transform="translate(53,41)"/>
<path d="M0 0 C9.59453303 0.59453303 9.59453303 0.59453303 13 4 C13.99 3.01 14.98 2.02 16 1 C17.65 1.66 19.3 2.32 21 3 C21 6.90838866 19.49432124 8.11594107 17 11 C15.02 10.34 13.04 9.68 11 9 C11 8.34 11 7.68 11 7 C10.37351562 6.96261719 9.74703125 6.92523437 9.1015625 6.88671875 C8.28429688 6.82097656 7.46703125 6.75523438 6.625 6.6875 C5.81289063 6.62949219 5.00078125 6.57148438 4.1640625 6.51171875 C2 6 2 6 0 3 C0 2.01 0 1.02 0 0 Z " fill="#F5F6F7" transform="translate(53,16)"/>
<path d="M0 0 C1.98 0 3.96 0 6 0 C6.33 0.66 6.66 1.32 7 2 C6.34 2 5.68 2 5 2 C4.896875 2.78375 4.79375 3.5675 4.6875 4.375 C4 7 4 7 1 9 C0.505 9.825 0.01 10.65 -0.5 11.5 C-2.81378339 15.35630565 -5.94316005 16.46497948 -10 18 C-10 18.66 -10 19.32 -10 20 C-12.31 19.67 -14.62 19.34 -17 19 C-15.69222189 16.38444378 -14.43742349 16.16422304 -11.8125 14.9375 C-5.67441983 11.65798348 -2.18045123 6.5413537 0 0 Z " fill="#F4F5F5" transform="translate(70,56)"/>
<path d="M0 0 C0 0.99 0 1.98 0 3 C-1.051875 3.433125 -2.10375 3.86625 -3.1875 4.3125 C-6.29460982 5.63870541 -9.14518195 7.1832976 -12 9 C-10.68 9.33 -9.36 9.66 -8 10 C-9.32 12.31 -10.64 14.62 -12 17 C-14.80362384 15.13091744 -17.38485683 13.12038635 -20 11 C-19 8 -19 8 -17.25 7.0625 C-16.5075 6.711875 -15.765 6.36125 -15 6 C-13.824375 5.01 -13.824375 5.01 -12.625 4 C-8.51671728 0.86987983 -5.13074249 0 0 0 Z " fill="#EEEFF0" transform="translate(49,27)"/>
<path d="M0 0 C4.74018901 1.83491188 9.36413251 3.91941459 14 6 C14 6.66 14 7.32 14 8 C13.01 8.495 13.01 8.495 12 9 C12 9.99 12 10.98 12 12 C5.83543922 11.61471495 2.01372252 9.52913975 -3 6 C-1.125 1.125 -1.125 1.125 0 0 Z " fill="#E8E9E9" transform="translate(32,77)"/>
<path d="M0 0 C3.875 4.75 3.875 4.75 5 7 C6.32 6.67 7.64 6.34 9 6 C9.33 6.66 9.66 7.32 10 8 C9.34 8.66 8.68 9.32 8 10 C12.77123742 14.21644237 16.72103002 16.60467334 23 18 C20.17998673 19.41000664 18.12992745 19.24548451 15 19 C12.25 17.5 12.25 17.5 10 16 C7.87635519 15.77390663 7.87635519 15.77390663 6.375 17.5 C5.92125 17.995 5.4675 18.49 5 19 C5.268125 18.13375 5.53625 17.2675 5.8125 16.375 C6.37895872 12.8158597 6.37895872 12.8158597 3.6875 10 C3.2234375 9.51273438 2.759375 9.02546875 2.28125 8.5234375 C0.38828897 6.27266067 -0.26465833 3.80766821 -1 1 C-0.67 0.67 -0.34 0.34 0 0 Z " fill="#C4C4C4" transform="translate(24,62)"/>
<path d="M0 0 C0.66 0.99 1.32 1.98 2 3 C0.68 4.32 -0.64 5.64 -2 7 C-1.319375 7.928125 -0.63875 8.85625 0.0625 9.8125 C0.701875 10.864375 1.34125 11.91625 2 13 C1.67 13.99 1.34 14.98 1 16 C-0.0725 15.319375 -1.145 14.63875 -2.25 13.9375 C-5.13357463 12.23483236 -5.13357463 12.23483236 -8.4375 12.25 C-8.953125 12.4975 -9.46875 12.745 -10 13 C-9.67 11.68 -9.34 10.36 -9 9 C-9.99 8.34 -10.98 7.68 -12 7 C-12 6.01 -12 5.02 -12 4 C-10.7625 4.268125 -9.525 4.53625 -8.25 4.8125 C-6.07828093 5.17476807 -6.07828093 5.17476807 -4 5 C-1.43965247 2.71924815 -1.43965247 2.71924815 0 0 Z " fill="#E6E7E7" transform="translate(74,21)"/>
<path d="M0 0 C2.48660455 0.3878678 3.72345219 0.70962479 5.484375 2.55859375 C5.90203125 3.17863281 6.3196875 3.79867188 6.75 4.4375 C7.17796875 5.05496094 7.6059375 5.67242188 8.046875 6.30859375 C9 8 9 8 9 10 C6.69 10.66 4.38 11.32 2 12 C-0.475 8.04 -0.475 8.04 -3 4 C-2.01 2.68 -1.02 1.36 0 0 Z " fill="#F5F6F7" transform="translate(74,24)"/>
<path d="M0 0 C4.875 0.875 4.875 0.875 6 2 C6.1875 4.4375 6.1875 4.4375 6 7 C4 9 4 9 0.875 9.125 C-0.07375 9.08375 -1.0225 9.0425 -2 9 C-2.33 8.01 -2.66 7.02 -3 6 C-3.66 6 -4.32 6 -5 6 C-4.67 7.32 -4.34 8.64 -4 10 C-4.66 9.67 -5.32 9.34 -6 9 C-6 7.02 -6 5.04 -6 3 C-5.67 3.66 -5.34 4.32 -5 5 C-1.88667752 4.33131686 -1.88667752 4.33131686 -0.8125 1.9375 C-0.544375 1.298125 -0.27625 0.65875 0 0 Z " fill="#A9A9A9" transform="translate(47,45)"/>
<path d="M0 0 C4 4.10810811 4 4.10810811 4 8 C2.68 8.33 1.36 8.66 0 9 C-0.268125 8.38125 -0.53625 7.7625 -0.8125 7.125 C-1.95556848 4.7004767 -1.95556848 4.7004767 -5 3 C-5.33 3.66 -5.66 4.32 -6 5 C-8.375 6.1875 -8.375 6.1875 -11 7 C-11.99 6.67 -12.98 6.34 -14 6 C-13.34 6 -12.68 6 -12 6 C-12 5.34 -12 4.68 -12 4 C-10.68 4 -9.36 4 -8 4 C-8.33 2.68 -8.66 1.36 -9 0 C-5.66265179 -1.1124494 -3.33742814 -1.16809985 0 0 Z " fill="#E9EAEA" transform="translate(58,39)"/>
<path d="M0 0 C0.99 0 1.98 0 3 0 C3.37125 1.216875 3.7425 2.43375 4.125 3.6875 C5.84925672 8.29641369 7.9382229 10.26451746 12 13 C14.21735439 13.85279338 14.21735439 13.85279338 16 14 C16 14.99 16 15.98 16 17 C17.32 17.33 18.64 17.66 20 18 C18.741875 18.04125 17.48375 18.0825 16.1875 18.125 C15.47980469 18.14820312 14.77210937 18.17140625 14.04296875 18.1953125 C12 18 12 18 9 16 C9 15.34 9 14.68 9 14 C8.34 14 7.68 14 7 14 C2.56080367 9.56080367 1.16376577 6.13621953 0 0 Z " fill="#737373" transform="translate(34,50)"/>
<path d="M0 0 C6.29785459 0.94592282 10.96066973 2.02158136 16 6 C15.01 6.495 15.01 6.495 14 7 C13.01 6.34 12.02 5.68 11 5 C10.01 5 9.02 5 8 5 C8.825 5.45375 9.65 5.9075 10.5 6.375 C11.325 6.91125 12.15 7.4475 13 8 C13 8.66 13 9.32 13 10 C10.02277453 9.29666462 7.14743457 8.41751463 4.25 7.4375 C3.45078125 7.16808594 2.6515625 6.89867187 1.828125 6.62109375 C0.92320313 6.31365234 0.92320313 6.31365234 0 6 C0 4.02 0 2.04 0 0 Z " fill="#F3F5F4" transform="translate(50,24)"/>
<path d="M0 0 C0.99 0.33 1.98 0.66 3 1 C3.6875 3.0625 3.6875 3.0625 4 5 C4 4.34 4 3.68 4 3 C6 3 6 3 7.75 4.5625 C9 7 9 7 8.1875 10.75 C7.795625 11.8225 7.40375 12.895 7 14 C4.11043313 12.70467692 1.98958312 11.4869789 0 9 C-0.29296875 6.73828125 -0.29296875 6.73828125 -0.1875 4.3125 C-0.16042969 3.50425781 -0.13335937 2.69601563 -0.10546875 1.86328125 C-0.07066406 1.24839844 -0.03585938 0.63351563 0 0 Z " fill="#DFE0E0" transform="translate(38,48)"/>
<path d="M0 0 C1.19109375 0.13535156 1.19109375 0.13535156 2.40625 0.2734375 C4.5 0.625 4.5 0.625 6.5 1.625 C6.5 2.285 6.5 2.945 6.5 3.625 C5.345 3.7075 4.19 3.79 3 3.875 C-1.11189078 4.36433691 -4.16477579 5.74833062 -7.73828125 7.78515625 C-9.5 8.625 -9.5 8.625 -12.5 8.625 C-11.125 6.125 -11.125 6.125 -9.5 3.625 C-8.84 3.625 -8.18 3.625 -7.5 3.625 C-7.17 2.635 -6.84 1.645 -6.5 0.625 C-4.01458657 -0.61770671 -2.73584621 -0.32865685 0 0 Z " fill="#E0E2E2" transform="translate(42.5,22.375)"/>
<path d="M0 0 C0.66 0 1.32 0 2 0 C2.19335938 0.79664063 2.38671875 1.59328125 2.5859375 2.4140625 C3.88208079 7.68846739 5.24092878 12.85809952 7 18 C7 18.66 7 19.32 7 20 C2.99352249 18.6645075 2.24255364 16.47234113 0 13 C-0.66 12.67 -1.32 12.34 -2 12 C-1.34 10.68 -0.68 9.36 0 8 C-0.33 8 -0.66 8 -1 8 C-0.67 5.36 -0.34 2.72 0 0 Z " fill="#D9D9DA" transform="translate(24,50)"/>
<path d="M0 0 C2.25 0.4375 2.25 0.4375 5 2 C7.62774972 6.29003229 9 9.95489272 9 15 C7.02 15 5.04 15 3 15 C3.66 14.34 4.32 13.68 5 13 C5 12.01 5 11.02 5 10 C2.525 9.01 2.525 9.01 0 8 C0.185625 7.236875 0.37125 6.47375 0.5625 5.6875 C1.22819173 2.91032625 1.22819173 2.91032625 0 0 Z " fill="#F3F4F4" transform="translate(64,35)"/>
<path d="M0 0 C7.50769231 0.61538462 7.50769231 0.61538462 10 2.5625 C10.33 3.036875 10.66 3.51125 11 4 C8.03 3.505 8.03 3.505 5 3 C5 3.66 5 4.32 5 5 C4.01 5 3.02 5 2 5 C2 5.66 2 6.32 2 7 C2.66 7 3.32 7 4 7 C3.34 9.31 2.68 11.62 2 14 C0.48046875 12.85546875 0.48046875 12.85546875 -1 11 C-1.07421875 8.30078125 -1.07421875 8.30078125 -0.6875 5.3125 C-0.56761719 4.31863281 -0.44773438 3.32476562 -0.32421875 2.30078125 C-0.21722656 1.54152344 -0.11023437 0.78226562 0 0 Z " fill="#B3B3B3" transform="translate(49,78)"/>
<path d="M0 0 C0.99 0.66 1.98 1.32 3 2 C1.61107376 5.33628673 0.16427776 6.93674362 -2.875 8.875 C-3.55304688 9.32617188 -4.23109375 9.77734375 -4.9296875 10.2421875 C-7 11 -7 11 -9.2578125 10.1328125 C-9.83273438 9.75898437 -10.40765625 9.38515625 -11 9 C-10.484375 8.62875 -9.96875 8.2575 -9.4375 7.875 C-6.18438982 5.37260756 -3.09877473 2.68966683 0 0 Z " fill="#B8B8B8" transform="translate(69,70)"/>
<path d="M0 0 C6.12397052 2.62455879 11.25984581 9.00591272 14 15 C13.67 15.99 13.34 16.98 13 18 C13 17.34 13 16.68 13 16 C12.01 16 11.02 16 10 16 C8.53515625 14.2421875 8.53515625 14.2421875 7.0625 11.875 C6.54558594 11.05773438 6.02867188 10.24046875 5.49609375 9.3984375 C5.00238281 8.60695313 4.50867188 7.81546875 4 7 C3.21293052 5.83022701 2.42206864 4.66298272 1.625 3.5 C0 1 0 1 0 0 Z " fill="#B4B5B5" transform="translate(73,18)"/>
<path d="M0 0 C2.52091985 0.37706066 3.72619559 0.70457946 5.484375 2.6015625 C8.3878889 7.24360016 9.66306968 10.36390768 9 16 C8.67 16.99 8.34 17.98 8 19 C7.34 19 6.68 19 6 19 C5.97421875 18.34773438 5.9484375 17.69546875 5.921875 17.0234375 C5.54297859 11.18498826 4.69271087 7.73128581 1 3 C0.67 2.01 0.34 1.02 0 0 Z " fill="#646463" transform="translate(57,37)"/>
<path d="M0 0 C4.12751449 0.60698743 7.3321148 2.03810791 11 4 C10.67 4.66 10.34 5.32 10 6 C11.32 6.66 12.64 7.32 14 8 C13.01 8 12.02 8 11 8 C11 8.66 11 9.32 11 10 C10.34 9.67 9.68 9.34 9 9 C8.401875 8.9175 7.80375 8.835 7.1875 8.75 C3.91773235 7.62893681 2.21803892 5.58771208 0 3 C0 2.01 0 1.02 0 0 Z " fill="#DCDDDE" transform="translate(32,70)"/>
<path d="M0 0 C1.98 0 3.96 0 6 0 C6.33 0.66 6.66 1.32 7 2 C6.34 2 5.68 2 5 2 C4.896875 2.78375 4.79375 3.5675 4.6875 4.375 C4 7 4 7 1 9 C-0.32 8.67 -1.64 8.34 -3 8 C-2.01 5.36 -1.02 2.72 0 0 Z " fill="#EDEEEE" transform="translate(70,56)"/>
<path d="M0 0 C-0.33 1.98 -0.66 3.96 -1 6 C-3.31 6.33 -5.62 6.66 -8 7 C-8.33 5.35 -8.66 3.7 -9 2 C-5.86501708 0.14223235 -3.62528568 -0.20140476 0 0 Z " fill="#F2F3F4" transform="translate(47,16)"/>
<path d="M0 0 C0.99 0.33 1.98 0.66 3 1 C-0.06272871 4.93779405 -2.41984841 7.78889234 -7 10 C-10.11328125 10.29296875 -10.11328125 10.29296875 -13.3125 10.1875 C-14.91544922 10.14689453 -14.91544922 10.14689453 -16.55078125 10.10546875 C-17.76314453 10.05326172 -17.76314453 10.05326172 -19 10 C-18.67 9.34 -18.34 8.68 -18 8 C-15.92578125 7.7265625 -15.92578125 7.7265625 -13.3125 7.625 C-8.53596096 7.24233021 -5.72494709 6.16620502 -2 3 C-1.34 2.01 -0.68 1.02 0 0 Z " fill="#BFBFBF" transform="translate(64,63)"/>
<path d="M0 0 C0 0.66 0 1.32 0 2 C-0.59167969 2.15855469 -1.18335938 2.31710938 -1.79296875 2.48046875 C-8.00869776 4.31578188 -11.99633388 6.46973111 -15.3125 12.3125 C-15.539375 12.869375 -15.76625 13.42625 -16 14 C-17.23896243 11.07154334 -16.99614276 9.98949975 -15.875 6.9375 C-13.8051082 3.69466952 -12.4901474 2.54215815 -9 1 C-5.8978884 0.31753545 -3.1741941 0 0 0 Z " fill="#707070" transform="translate(53,35)"/>
<path d="M0 0 C0.99 0.495 0.99 0.495 2 1 C2 1.66 2 2.32 2 3 C2.66 3 3.32 3 4 3 C4.33 3.66 4.66 4.32 5 5 C7.11846285 5.68729254 7.11846285 5.68729254 9.5625 6.125 C10.80193359 6.37636719 10.80193359 6.37636719 12.06640625 6.6328125 C12.70449219 6.75398438 13.34257813 6.87515625 14 7 C14 7.66 14 8.32 14 9 C10.47478731 10.1750709 9.34332144 9.72717795 5.875 8.625 C4.98554687 8.34914063 4.09609375 8.07328125 3.1796875 7.7890625 C1 7 1 7 0 6 C-0.04080783 4.00041636 -0.04254356 1.99954746 0 0 Z " fill="#E5E6E5" transform="translate(50,16)"/>
<path d="M0 0 C-0.33 1.65 -0.66 3.3 -1 5 C-0.34 5 0.32 5 1 5 C1.33 4.34 1.66 3.68 2 3 C2.66 3.66 3.32 4.32 4 5 C3.67 5.99 3.34 6.98 3 8 C2.46375 7.855625 1.9275 7.71125 1.375 7.5625 C-1.39915827 6.90546252 -4.18525388 6.44780052 -7 6 C-6.625 3.5625 -6.625 3.5625 -6 1 C-4 0 -4 0 0 0 Z " fill="#E5E6E6" transform="translate(32,41)"/>
<path d="M0 0 C5.93002267 -0.37851209 10.47239641 0.89424625 16 3 C16 3.99 16 4.98 16 6 C10.72 4.68 5.44 3.36 0 2 C0 1.34 0 0.68 0 0 Z " fill="#F0F2F1" transform="translate(51,12)"/>
<path d="M0 0 C1.65 0 3.3 0 5 0 C4.67 0.99 4.34 1.98 4 3 C4.99 3.33 5.98 3.66 7 4 C5.375 5.5625 5.375 5.5625 3 7 C-0.25 6.6875 -0.25 6.6875 -3 6 C-3 5.01 -3 4.02 -3 3 C-2.34 3 -1.68 3 -1 3 C-0.67 2.01 -0.34 1.02 0 0 Z " fill="#CECFCF" transform="translate(53,61)"/>
<path d="M0 0 C0.33 0 0.66 0 1 0 C1.10834375 4.44209357 0.70173653 8.61414671 0 13 C-0.33 12.34 -0.66 11.68 -1 11 C-2.98 11 -4.96 11 -7 11 C-7 9.68 -7 8.36 -7 7 C-5.35 6.67 -3.7 6.34 -2 6 C-1.34 4.02 -0.68 2.04 0 0 Z " fill="#E4E4E4" transform="translate(88,43)"/>
<path d="M0 0 C-1.50776479 4.22174141 -4.15164062 5.88717524 -8 8 C-10.875 8.25 -10.875 8.25 -13 8 C-12.67 7.01 -12.34 6.02 -12 5 C-9.69631264 3.93347808 -7.35981813 2.93578995 -5 2 C-2 0 -2 0 0 0 Z " fill="#EFF0F0" transform="translate(64,63)"/>
<path d="M0 0 C0.33 0.66 0.66 1.32 1 2 C-1 5 -1 5 -2 6 C-0.68 6.33 0.64 6.66 2 7 C-0.31 7 -2.62 7 -5 7 C-5 7.66 -5 8.32 -5 9 C-4.34 9 -3.68 9 -3 9 C-3 9.66 -3 10.32 -3 11 C-3.99 10.67 -4.98 10.34 -6 10 C-6.08886184 6.80097361 -5.91058531 4.07322544 -5 1 C-3.35 0.67 -1.7 0.34 0 0 Z " fill="#C7C7C7" transform="translate(51,53)"/>
<path d="M0 0 C0.721875 0.45375 1.44375 0.9075 2.1875 1.375 C5.98930179 3.57159659 9.71739869 5.04831082 14 6 C11.12063188 7.43968406 9.20992381 7.302823 6 7 C3.49709673 5.85137305 1.33037277 4.49143857 -1 3 C-0.67 2.01 -0.34 1.02 0 0 Z " fill="#B2B2B2" transform="translate(33,74)"/>
<path d="M0 0 C0.66 0 1.32 0 2 0 C1.49289581 4.36109605 0.63658349 7.45075299 -2 11 C-2.99 11.33 -3.98 11.66 -5 12 C-5.33 11.34 -5.66 10.68 -6 10 C-4.6875 7.375 -4.6875 7.375 -3 5 C-2.34 5 -1.68 5 -1 5 C-0.67 3.35 -0.34 1.7 0 0 Z " fill="#C7C8C8" transform="translate(75,58)"/>
<path d="M0 0 C7.66742597 5.0022779 7.66742597 5.0022779 9 9 C7.02 9.33 5.04 9.66 3 10 C3.33 8.35 3.66 6.7 4 5 C3.34 5 2.68 5 2 5 C1.67 5.66 1.34 6.32 1 7 C0.34 5.02 -0.32 3.04 -1 1 C-0.67 0.67 -0.34 0.34 0 0 Z " fill="#C0C0C1" transform="translate(28,36)"/>
<path d="M0 0 C0.99 0.33 1.98 0.66 3 1 C3 1.99 3 2.98 3 4 C4.27875 4.0825 5.5575 4.165 6.875 4.25 C9.0859375 4.51171875 9.0859375 4.51171875 11 5 C12.5 7.0625 12.5 7.0625 13 9 C10.36 8.34 7.72 7.68 5 7 C4.67 7.66 4.34 8.32 4 9 C4 8.01 4 7.02 4 6 C3.34 6 2.68 6 2 6 C2 4.68 2 3.36 2 2 C1.34 2 0.68 2 0 2 C0 1.34 0 0.68 0 0 Z " fill="#DEDEDE" transform="translate(47,72)"/>
<path d="M0 0 C1.875 0.25 1.875 0.25 4 1 C6.02755186 3.93995019 6 5.27704003 6 9 C5.34 9 4.68 9 4 9 C3.34 9.66 2.68 10.32 2 11 C2.33 8.69 2.66 6.38 3 4 C2.01 4 1.02 4 0 4 C0 2.68 0 1.36 0 0 Z " fill="#C8C8C8" transform="translate(30,50)"/>
<path d="M0 0 C2.64 0.33 5.28 0.66 8 1 C7.67 1.66 7.34 2.32 7 3 C7.99 3.99 8.98 4.98 10 6 C6.7 5.34 3.4 4.68 0 4 C0 2.68 0 1.36 0 0 Z " fill="#D7D8D7" transform="translate(50,30)"/>
<path d="M0 0 C3.60296594 -0.41176754 4.78402067 -0.1535853 7.8125 2 C8.534375 2.66 9.25625 3.32 10 4 C9.67 4.33 9.34 4.66 9 5 C10.65 5.99 12.3 6.98 14 8 C13.67 8.66 13.34 9.32 13 10 C10.0280615 8.87548273 7.66559313 7.77706209 5 6 C5.66 6 6.32 6 7 6 C4.83312509 3.72478134 2.54379491 1.84205838 0 0 Z " fill="#E4E4E4" transform="translate(56,28)"/>
<path d="M0 0 C0.7425 0.0825 1.485 0.165 2.25 0.25 C2.25 1.57 2.25 2.89 2.25 4.25 C3.24 4.58 4.23 4.91 5.25 5.25 C2.94 5.58 0.63 5.91 -1.75 6.25 C-0.76 5.92 0.23 5.59 1.25 5.25 C1.25 4.59 1.25 3.93 1.25 3.25 C-1.39 3.58 -4.03 3.91 -6.75 4.25 C-3.42692308 0.31153846 -3.42692308 0.31153846 0 0 Z " fill="#BABABA" transform="translate(47.75,29.75)"/>
<path d="M0 0 C1.23709526 3.71128578 0.64412851 4.54733013 -1 8 C-2.4375 10.8125 -2.4375 10.8125 -4 13 C-4.99 13 -5.98 13 -7 13 C-6.41597876 9.61267683 -5.38095083 8.38095083 -3 6 C-1.95377125 4.02379014 -0.94560065 2.0262871 0 0 Z " fill="#D1D1D1" transform="translate(77,60)"/>
<path d="M0 0 C0.99 0 1.98 0 3 0 C3.19622241 4.21878192 2.80230168 7.17010894 1 11 C0.01 11 -0.98 11 -2 11 C-2 9.02 -2 7.04 -2 5 C-1.34 4.67 -0.68 4.34 0 4 C0 2.68 0 1.36 0 0 Z " fill="#E8E8E8" transform="translate(66,52)"/>
<path d="M0 0 C0.33 0.99 0.66 1.98 1 3 C1.66 3.33 2.32 3.66 3 4 C1.68 4 0.36 4 -1 4 C-0.6596875 4.8971875 -0.6596875 4.8971875 -0.3125 5.8125 C-0.209375 6.534375 -0.10625 7.25625 0 8 C-1.4375 9.75 -1.4375 9.75 -3 11 C-3.66 10.67 -4.32 10.34 -5 10 C-4.67 9.34 -4.34 8.68 -4 8 C-3.63858045 5.67085177 -3.30300475 3.33746522 -3 1 C-2.67 1.66 -2.34 2.32 -2 3 C-1.34 3 -0.68 3 0 3 C0 2.01 0 1.02 0 0 Z " fill="#AFAFAE" transform="translate(65,53)"/>
<path d="M0 0 C0 3.72038015 -0.90324391 4.44902879 -3.3125 7.1875 C-3.92738281 7.90292969 -4.54226562 8.61835937 -5.17578125 9.35546875 C-7 11 -7 11 -10 11 C-6.79239749 7.19364503 -3.59253891 3.45436433 0 0 Z " fill="#B5B5B5" transform="translate(84,70)"/>
<path d="M0 0 C1.65 0.33 3.3 0.66 5 1 C5.042721 2.66611905 5.04063832 4.33382885 5 6 C4 7 4 7 0.9375 7.0625 C-0.031875 7.041875 -1.00125 7.02125 -2 7 C-2 6.01 -2 5.02 -2 4 C-0.35 4.33 1.3 4.66 3 5 C2.2575 4.319375 2.2575 4.319375 1.5 3.625 C0 2 0 2 0 0 Z " fill="#5D5D5C" transform="translate(48,46)"/>
<path d="M0 0 C-1.32 2.31 -2.64 4.62 -4 7 C-7 5 -7 5 -8 2 C-5.44123378 -0.55876622 -3.37797483 -1.68898741 0 0 Z " fill="#E0E0E0" transform="translate(41,37)"/>
<path d="M0 0 C0.33 0.99 0.66 1.98 1 3 C3.00016466 4.20882096 3.00016466 4.20882096 5 5 C4.01 5.33 3.02 5.66 2 6 C1.34 6.66 0.68 7.32 0 8 C-4 3.25 -4 3.25 -4 1 C-2.68 0.67 -1.36 0.34 0 0 Z " fill="#DDDDDE" transform="translate(35,60)"/>
<path d="M0 0 C2.64 0 5.28 0 8 0 C8 0.99 8 1.98 8 3 C10.64 3.33 13.28 3.66 16 4 C16 4.33 16 4.66 16 5 C14.02 5 12.04 5 10 5 C9.67 5.99 9.34 6.98 9 8 C8.67 6.68 8.34 5.36 8 4 C7.34 4 6.68 4 6 4 C6 3.01 6 2.02 6 1 C4.02 1 2.04 1 0 1 C0 0.67 0 0.34 0 0 Z " fill="#C0C1C0" transform="translate(43,11)"/>
<path d="M0 0 C0 2.64 0 5.28 0 8 C-1.65 8.33 -3.3 8.66 -5 9 C-4.6875 5.625 -4.6875 5.625 -4 2 C-1 0 -1 0 0 0 Z " fill="#DCDCDC" transform="translate(63,46)"/>
<path d="M0 0 C0.33 0.99 0.66 1.98 1 3 C-4.94 3.495 -4.94 3.495 -11 4 C-11 3.34 -11 2.68 -11 2 C-8.70370006 0.85185003 -6.92301914 0.69230191 -4.375 0.4375 C-3.14910156 0.31181641 -3.14910156 0.31181641 -1.8984375 0.18359375 C-0.95871094 0.09271484 -0.95871094 0.09271484 0 0 Z " fill="#EFF0EF" transform="translate(48,12)"/>
<path d="M0 0 C-0.33 0.99 -0.66 1.98 -1 3 C-1.33 2.67 -1.66 2.34 -2 2 C-2.33 2.66 -2.66 3.32 -3 4 C-4.32 4 -5.64 4 -7 4 C-7 3.34 -7 2.68 -7 2 C-7.66 2 -8.32 2 -9 2 C-9 1.34 -9 0.68 -9 0 C-2.25 -1.125 -2.25 -1.125 0 0 Z " fill="#EBEBEB" transform="translate(55,60)"/>
<path d="M0 0 C1.65 0 3.3 0 5 0 C5.12375 0.639375 5.2475 1.27875 5.375 1.9375 C5.684375 2.9584375 5.684375 2.9584375 6 4 C6.66 4.33 7.32 4.66 8 5 C8 5.66 8 6.32 8 7 C2.25 5.25 2.25 5.25 0 3 C0 2.01 0 1.02 0 0 Z " fill="#C4C4C4" transform="translate(36,65)"/>
<path d="M0 0 C0.99 0.33 1.98 0.66 3 1 C3 3.64 3 6.28 3 9 C2.01 9 1.02 9 0 9 C0 6.03 0 3.06 0 0 Z " fill="#EFF1F0" transform="translate(38,48)"/>
<path d="M0 0 C0.928125 0.2784375 0.928125 0.2784375 1.875 0.5625 C4.04160178 1.23686176 4.04160178 1.23686176 6 0 C6.66 0.33 7.32 0.66 8 1 C7.67 2.32 7.34 3.64 7 5 C2.25 4.125 2.25 4.125 0 3 C0 2.01 0 1.02 0 0 Z " fill="#CDCDCD" transform="translate(38,45)"/>
<path d="M0 0 C1.32 0.33 2.64 0.66 4 1 C4 2.65 4 4.3 4 6 C1.03 5.505 1.03 5.505 -2 5 C-2 4.34 -2 3.68 -2 3 C-1.01 3 -0.02 3 1 3 C0.67 2.01 0.34 1.02 0 0 Z " fill="#DEDFDE" transform="translate(53,80)"/>
<path d="M0 0 C0.99 0 1.98 0 3 0 C3.33 2.31 3.66 4.62 4 7 C3.01 7.66 2.02 8.32 1 9 C0.67 6.03 0.34 3.06 0 0 Z " fill="#EFF0F0" transform="translate(26,50)"/>
<path d="M0 0 C1.32 0 2.64 0 4 0 C3.34 2.31 2.68 4.62 2 7 C0.4375 5.75 0.4375 5.75 -1 4 C-0.6875 1.8125 -0.6875 1.8125 0 0 Z " fill="#949393" transform="translate(49,85)"/>
<path d="M0 0 C2.31 0 4.62 0 7 0 C7 1.65 7 3.3 7 5 C6.01 5.495 6.01 5.495 5 6 C4.34 5.34 3.68 4.68 3 4 C3 3.34 3 2.68 3 2 C2.01 1.34 1.02 0.68 0 0 Z " fill="#C7C8C7" transform="translate(42,81)"/>
<path d="M0 0 C2.31 0.33 4.62 0.66 7 1 C6.67 1.66 6.34 2.32 6 3 C5.34 2.67 4.68 2.34 4 2 C3.67 2.66 3.34 3.32 3 4 C0.36 3.67 -2.28 3.34 -5 3 C-5 2.67 -5 2.34 -5 2 C-3.35 2 -1.7 2 0 2 C0 1.34 0 0.68 0 0 Z " fill="#9F9F9E" transform="translate(53,35)"/>
<path d="M0 0 C0.99 0.33 1.98 0.66 3 1 C2.34 1 1.68 1 1 1 C1 1.66 1 2.32 1 3 C2.65 3 4.3 3 6 3 C5.54625 3.433125 5.0925 3.86625 4.625 4.3125 C2.79975666 6.10798342 2.79975666 6.10798342 1 9 C0.87625 7.865625 0.7525 6.73125 0.625 5.5625 C0.41875 4.386875 0.2125 3.21125 0 2 C-0.66 1.67 -1.32 1.34 -2 1 C-1.34 0.67 -0.68 0.34 0 0 Z " fill="#B8B8B8" transform="translate(36,13)"/>
<path d="M0 0 C0.99 1.32 1.98 2.64 3 4 C2.1875 7.75 2.1875 7.75 1 11 C0.34 10.67 -0.32 10.34 -1 10 C-0.67 6.7 -0.34 3.4 0 0 Z " fill="#E1E1E1" transform="translate(78,52)"/>
<path d="M0 0 C0.99 0.33 1.98 0.66 3 1 C2.74438677 3.3431213 2.40729228 5.67843403 2 8 C1.01 8.495 1.01 8.495 0 9 C-1.125 2.25 -1.125 2.25 0 0 Z " fill="#BDBCBD" transform="translate(22,53)"/>
<path d="M0 0 C0.33 0 0.66 0 1 0 C1.125 6.625 1.125 6.625 0 10 C-0.66 10 -1.32 10 -2 10 C-2.1953125 3.9453125 -2.1953125 3.9453125 -2 2 C-1.34 1.34 -0.68 0.68 0 0 Z " fill="#828181" transform="translate(65,46)"/>
<path d="M0 0 C0.99 0.33 1.98 0.66 3 1 C2.625 2.9375 2.625 2.9375 2 5 C1.01 5.495 1.01 5.495 0 6 C-0.66 5.67 -1.32 5.34 -2 5 C-1.125 1.125 -1.125 1.125 0 0 Z " fill="#E9E9E9" transform="translate(41,41)"/>
<path d="M0 0 C0 0.99 0 1.98 0 3 C-2.31 3.33 -4.62 3.66 -7 4 C-7 3.01 -7 2.02 -7 1 C-4 0 -4 0 0 0 Z " fill="#F4F5F5" transform="translate(49,27)"/>
<path d="M0 0 C1.32 0.66 2.64 1.32 4 2 C4 2.99 4 3.98 4 5 C-0.75 4.25 -0.75 4.25 -3 2 C-2.01 1.34 -1.02 0.68 0 0 Z " fill="#DFDFDF" transform="translate(42,65)"/>
<path d="M0 0 C0.33 0.99 0.66 1.98 1 3 C3.01508358 3.73323796 3.01508358 3.73323796 5 4 C-2.75 4.125 -2.75 4.125 -5 3 C-5 2.34 -5 1.68 -5 1 C-3.35 0.67 -1.7 0.34 0 0 Z " fill="#A09F9F" transform="translate(49,64)"/>
<path d="M0 0 C0.99 0.33 1.98 0.66 3 1 C2.34 3.31 1.68 5.62 1 8 C0.01 8 -0.98 8 -2 8 C-1.34 5.36 -0.68 2.72 0 0 Z " fill="#B4B4B3" transform="translate(12,37)"/>
<path d="M0 0 C1.65 0 3.3 0 5 0 C5.33 0.66 5.66 1.32 6 2 C5.01 3.32 4.02 4.64 3 6 C2.01 5.67 1.02 5.34 0 5 C0 3.33333333 0 1.66666667 0 0 Z " fill="#C4C4C4" transform="translate(64,28)"/>
<path d="M0 0 C0.66 0.99 1.32 1.98 2 3 C0.71937515 4.7074998 -0.61767557 6.37373596 -2 8 C-2.66 8 -3.32 8 -4 8 C-2.87548273 5.0280615 -1.77706209 2.66559313 0 0 Z " fill="#B3B4B4" transform="translate(18,26)"/>
<path d="M0 0 C2.66666667 0.66666667 5.33333333 1.33333333 8 2 C8 2.66 8 3.32 8 4 C5.36 3.67 2.72 3.34 0 3 C0 2.01 0 1.02 0 0 Z " fill="#EDEEEE" transform="translate(50,73)"/>
<path d="M0 0 C6.93 0.495 6.93 0.495 14 1 C14 1.33 14 1.66 14 2 C9.05 2.33 4.1 2.66 -1 3 C-0.67 2.01 -0.34 1.02 0 0 Z " fill="#C8C9C8" transform="translate(8,47)"/>
<path d="M0 0 C2.375 0.25 2.375 0.25 5 1 C6.3125 3.0625 6.3125 3.0625 7 5 C5.35 4.67 3.7 4.34 2 4 C2 3.01 2 2.02 2 1 C1.34 0.67 0.68 0.34 0 0 Z " fill="#DCDDDC" transform="translate(42,85)"/>
<path d="M0 0 C1.32 0 2.64 0 4 0 C3.67 1.32 3.34 2.64 3 4 C1.68 4 0.36 4 -1 4 C-0.67 2.68 -0.34 1.36 0 0 Z " fill="#E5E7E6" transform="translate(53,86)"/>
<path d="M0 0 C2.66735273 2.48952921 4.55746343 4.63408134 6 8 C2.17053157 6.54744301 0.87949705 4.57104439 -1 1 C-0.67 0.67 -0.34 0.34 0 0 Z " fill="#A3A3A4" transform="translate(17,70)"/>
<path d="M0 0 C1.98 0 3.96 0 6 0 C6 0.99 6 1.98 6 3 C4.02 3 2.04 3 0 3 C0 2.01 0 1.02 0 0 Z " fill="#E9E9E9" transform="translate(71,52)"/>
<path d="M0 0 C2.89932357 2.39509338 3.50168276 4.31245243 4 8 C2.68 7.34 1.36 6.68 0 6 C0 4.02 0 2.04 0 0 Z " fill="#F0F1F1" transform="translate(50,16)"/>
<path d="M0 0 C0.99 0.66 1.98 1.32 3 2 C2.67 2.99 2.34 3.98 2 5 C-0.0625 5.6875 -0.0625 5.6875 -2 6 C-2.33 5.01 -2.66 4.02 -3 3 C-2.01 2.01 -1.02 1.02 0 0 Z " fill="#BFBFBF" transform="translate(69,70)"/>
<path d="M0 0 C1.98 0.495 1.98 0.495 4 1 C3.01 1 2.02 1 1 1 C1 1.66 1 2.32 1 3 C1.99 3.33 2.98 3.66 4 4 C4 4.66 4 5.32 4 6 C1.525 5.01 1.525 5.01 -1 4 C-0.67 2.68 -0.34 1.36 0 0 Z " fill="#B7B7B7" transform="translate(47,45)"/>
<path d="M0 0 C1.98 0.495 1.98 0.495 4 1 C2.515 3.475 2.515 3.475 1 6 C-0.0625 4.125 -0.0625 4.125 -1 2 C-0.67 1.34 -0.34 0.68 0 0 Z " fill="#C5C6C6" transform="translate(13,33)"/>
<path d="M0 0 C1.65 0 3.3 0 5 0 C5.66 1.32 6.32 2.64 7 4 C4 4 4 4 1.8125 2 C1.214375 1.34 0.61625 0.68 0 0 Z " fill="#DBDBDB" transform="translate(69,32)"/>
</svg>
